<?xml version="1.0" standalone="no"?>
<!DOCTYPE svg PUBLIC "-//W3C//DTD SVG 20010904//EN"
 "http://www.w3.org/TR/2001/REC-SVG-20010904/DTD/svg10.dtd">
<svg version="1.0" xmlns="http://www.w3.org/2000/svg"
 width="569.000000pt" height="569.000000pt" viewBox="0 0 569.000000 569.000000"
 preserveAspectRatio="xMidYMid meet">
<metadata>
Created by potrace 1.11, written by Peter Selinger 2001-2013
</metadata>
<g transform="translate(0.000000,569.000000) scale(0.100000,-0.100000)"
fill="#000000" stroke="none">
<path d="M340 5653 c0 -30 3 -35 13 -25 16 17 16 62 0 62 -8 0 -13 -13 -13
-37z"/>
<path d="M450 5662 c0 -15 5 -33 11 -39 15 -15 39 -5 39 15 0 8 7 24 17 34 15
17 14 18 -25 18 -39 0 -42 -2 -42 -28z"/>
<path d="M1776 5674 c-9 -22 -2 -29 31 -32 21 -1 31 4 40 23 11 24 10 25 -27
25 -25 0 -40 -5 -44 -16z"/>
<path d="M2530 5680 c0 -5 7 -7 17 -3 14 5 15 1 10 -35 -7 -60 1 -82 29 -82
14 0 27 7 31 17 6 15 7 14 14 -3 8 -21 9 -18 26 54 9 35 8 42 -2 38 -8 -3 -19
2 -25 10 -14 16 -100 20 -100 4z m107 -52 c-3 -8 -6 -5 -6 6 -1 11 2 17 5 13
3 -3 4 -12 1 -19z"/>
<path d="M1870 5670 c0 -5 9 -10 20 -10 11 0 20 5 20 10 0 6 -9 10 -20 10 -11
0 -20 -4 -20 -10z"/>
<path d="M2104 5668 c-3 -4 -32 -8 -65 -8 -45 0 -61 -4 -66 -15 -8 -23 7 -33
18 -12 14 24 29 21 29 -5 1 -21 2 -22 14 -5 9 11 27 17 53 17 21 0 44 5 51 12
9 9 12 9 12 -1 0 -7 5 -9 10 -6 6 3 10 2 10 -3 0 -5 10 -13 22 -19 19 -8 25
-6 35 15 8 14 12 26 10 28 -8 8 -128 10 -133 2z"/>
<path d="M2260 5630 c0 -16 5 -30 10 -30 6 0 10 6 10 14 0 8 3 21 6 30 4 11 1
16 -10 16 -11 0 -16 -9 -16 -30z"/>
<path d="M2335 5650 c-3 -5 -1 -10 4 -10 6 0 11 5 11 10 0 6 -2 10 -4 10 -3 0
-8 -4 -11 -10z"/>
<path d="M2680 5652 c0 -6 5 -14 12 -18 8 -5 7 -10 -4 -18 -12 -9 -32 -56 -24
-56 2 0 17 7 35 16 23 11 31 22 29 36 -3 22 -48 59 -48 40z"/>
<path d="M2783 5621 c18 -15 27 -32 27 -52 0 -33 0 -33 35 -17 19 9 28 9 37 0
17 -17 58 -15 58 2 0 22 -17 28 -24 9 -5 -13 -9 -14 -19 -4 -9 9 -9 14 3 21 8
5 11 12 7 17 -7 7 -68 26 -127 40 l-25 6 28 -22z"/>
<path d="M1720 5541 c0 -11 51 -21 99 -20 31 1 28 3 -24 14 -74 17 -75 17 -75
6z"/>
<path d="M1227 5534 c-8 -8 1 -24 14 -24 5 0 9 7 9 15 0 15 -12 20 -23 9z"/>
<path d="M1280 5521 c0 -4 11 -6 25 -3 14 2 25 6 25 8 0 2 -11 4 -25 4 -14 0
-25 -4 -25 -9z"/>
<path d="M2210 5480 c0 -5 4 -10 9 -10 6 0 13 5 16 10 3 6 -1 10 -9 10 -9 0
-16 -4 -16 -10z"/>
<path d="M2268 5473 c7 -3 16 -2 19 1 4 3 -2 6 -13 5 -11 0 -14 -3 -6 -6z"/>
<path d="M1895 5450 c-8 -13 3 -30 20 -30 20 0 30 21 14 31 -18 11 -26 11 -34
-1z"/>
<path d="M0 5405 c0 -25 4 -45 9 -45 13 0 17 9 25 53 6 33 5 37 -14 37 -17 0
-20 -6 -20 -45z"/>
<path d="M92 5438 c-7 -7 -12 -26 -12 -42 -1 -36 -19 -65 -37 -59 -8 3 -13 -5
-13 -22 0 -19 4 -26 14 -22 7 3 19 0 25 -6 8 -8 11 -8 11 1 0 18 17 14 39 -9
11 -12 26 -19 35 -16 22 9 32 57 15 68 -10 6 -8 9 10 9 22 0 23 1 8 23 -8 12
-21 21 -27 19 -18 -4 -40 18 -40 39 0 23 -14 31 -28 17z"/>
<path d="M1770 5431 c0 -6 5 -13 10 -16 6 -3 10 1 10 9 0 9 -4 16 -10 16 -5 0
-10 -4 -10 -9z"/>
<path d="M2735 5410 c-11 -18 74 -32 115 -19 22 6 21 7 -12 8 -20 1 -40 6 -43
11 -8 13 -52 13 -60 0z"/>
<path d="M2250 5394 c0 -9 5 -14 12 -12 18 6 21 28 4 28 -9 0 -16 -7 -16 -16z"/>
<path d="M2173 5393 c9 -2 23 -2 30 0 6 3 -1 5 -18 5 -16 0 -22 -2 -12 -5z"/>
<path d="M2900 5390 c0 -6 11 -8 28 -4 39 10 40 14 4 14 -18 0 -32 -5 -32 -10z"/>
<path d="M3137 5373 c-10 -10 44 -31 66 -25 25 6 21 22 -7 22 -13 0 -31 2 -38
5 -8 3 -17 2 -21 -2z"/>
<path d="M5041 5341 l-35 -19 31 -6 c23 -5 40 -2 59 10 24 16 25 19 8 25 -26
10 -25 10 -63 -10z"/>
<path d="M2328 5343 c7 -3 16 -2 19 1 4 3 -2 6 -13 5 -11 0 -14 -3 -6 -6z"/>
<path d="M3238 5343 c7 -3 16 -2 19 1 4 3 -2 6 -13 5 -11 0 -14 -3 -6 -6z"/>
<path d="M2500 5326 c0 -8 -5 -16 -12 -18 -9 -3 -9 -6 -1 -11 12 -7 43 17 43
34 0 5 -7 9 -15 9 -8 0 -15 -6 -15 -14z"/>
<path d="M5125 5320 c-18 -19 -17 -20 6 -21 47 -2 68 8 69 34 0 16 -58 6 -75
-13z"/>
<path d="M5220 5320 c0 -16 7 -20 30 -20 23 0 30 4 30 20 0 16 -7 20 -30 20
-23 0 -30 -4 -30 -20z"/>
<path d="M260 5320 c0 -5 5 -10 10 -10 6 0 10 5 10 10 0 6 -4 10 -10 10 -5 0
-10 -4 -10 -10z"/>
<path d="M405 5306 c-9 -14 -15 -31 -13 -38 3 -7 12 2 22 20 21 41 14 54 -9
18z"/>
<path d="M638 5295 c-16 -35 13 -77 50 -73 19 2 26 8 24 20 -1 9 2 19 8 23 12
7 14 45 2 45 -4 0 -14 -6 -21 -12 -10 -11 -14 -10 -22 5 -14 24 -27 21 -41 -8z"/>
<path d="M2560 5312 c0 -12 19 -26 26 -19 2 2 -2 10 -11 17 -9 8 -15 8 -15 2z"/>
<path d="M5346 5312 c-3 -6 1 -13 10 -16 23 -9 28 -2 10 13 -8 7 -17 8 -20 3z"/>
<path d="M340 5295 c0 -8 4 -15 10 -15 5 0 7 7 4 15 -4 8 -8 15 -10 15 -2 0
-4 -7 -4 -15z"/>
<path d="M444 5286 c-3 -14 -4 -33 -2 -43 3 -14 7 -12 21 15 10 17 22 32 28
32 6 0 7 5 4 10 -12 20 -44 11 -51 -14z"/>
<path d="M520 5295 c0 -17 2 -18 24 -9 18 7 12 24 -10 24 -8 0 -14 -7 -14 -15z"/>
<path d="M2680 5296 c0 -19 14 -28 34 -20 15 6 15 8 -1 20 -23 17 -33 17 -33
0z"/>
<path d="M761 5284 c0 -11 3 -14 6 -6 3 7 2 16 -1 19 -3 4 -6 -2 -5 -13z"/>
<path d="M911 5274 c0 -11 3 -14 6 -6 3 7 2 16 -1 19 -3 4 -6 -2 -5 -13z"/>
<path d="M4365 5253 c-11 -3 -22 -9 -25 -13 -3 -3 -14 -12 -25 -18 -16 -9 -10
-10 35 -10 30 1 65 -2 78 -6 28 -9 30 13 4 37 -19 17 -31 19 -67 10z"/>
<path d="M4989 5234 l-24 -26 22 -18 22 -18 -23 -4 c-35 -7 -61 9 -45 28 8 10
8 14 0 14 -18 0 -26 -4 -23 -12 1 -5 -15 -8 -35 -8 -31 0 -81 -17 -63 -21 3
-1 57 -9 120 -19 122 -19 212 -36 270 -51 19 -5 76 -14 125 -18 127 -13 185
-21 225 -31 19 -5 55 -10 80 -12 43 -3 45 -2 45 26 0 23 -6 30 -38 41 -23 8
-62 11 -100 8 -45 -4 -74 -1 -98 10 -19 8 -42 17 -51 21 -24 7 -23 26 2 26 26
0 25 7 -2 36 -28 29 -69 31 -94 3 -14 -15 -26 -19 -47 -15 -23 5 -29 1 -37
-18 -11 -31 -47 -40 -75 -18 -12 10 -20 22 -18 29 2 6 -6 15 -19 19 -13 4 -33
17 -45 30 -28 31 -44 30 -74 -2z m109 -51 c2 -9 -9 -13 -37 -13 -46 0 -52 6
-18 20 28 11 49 9 55 -7z m218 -23 c21 0 17 -18 -8 -31 -16 -9 -23 -9 -26 0
-2 6 -10 11 -18 11 -8 0 -14 4 -14 9 0 12 21 21 38 15 8 -2 20 -4 28 -4z m44
0 c0 -5 -4 -10 -10 -10 -5 0 -10 5 -10 10 0 6 5 10 10 10 6 0 10 -4 10 -10z"/>
<path d="M5480 5245 c0 -8 5 -15 10 -15 6 0 10 7 10 15 0 8 -4 15 -10 15 -5 0
-10 -7 -10 -15z"/>
<path d="M5614 5249 c-7 -12 12 -29 32 -29 14 0 26 25 17 34 -10 10 -41 7 -49
-5z"/>
<path d="M4097 5233 c-16 -15 -5 -23 31 -23 35 1 36 2 18 15 -21 16 -39 19
-49 8z"/>
<path d="M4585 5230 c-3 -5 3 -10 14 -10 12 0 21 5 21 10 0 6 -6 10 -14 10 -8
0 -18 -4 -21 -10z"/>
<path d="M3860 5196 c0 -9 5 -16 10 -16 6 0 10 4 10 9 0 6 -4 13 -10 16 -5 3
-10 -1 -10 -9z"/>
<path d="M4636 5195 c-27 -21 -13 -30 47 -30 29 0 55 -4 58 -9 9 -12 39 0 39
15 0 6 -7 9 -15 6 -8 -4 -17 -1 -21 4 -3 6 -17 8 -30 5 -17 -5 -24 -2 -24 9 0
19 -29 19 -54 0z"/>
<path d="M5190 5185 c7 -9 15 -13 17 -11 7 7 -7 26 -19 26 -6 0 -6 -6 2 -15z"/>
<path d="M5487 5173 c-13 -12 -7 -22 8 -17 8 4 21 1 29 -5 17 -14 29 -2 15 16
-12 14 -41 18 -52 6z"/>
<path d="M3480 5099 c0 -24 23 -21 28 4 2 10 -3 17 -12 17 -10 0 -16 -9 -16
-21z"/>
<path d="M317 5059 c-9 -6 -17 -14 -17 -19 0 -10 38 -1 45 11 9 13 -9 18 -28
8z"/>
<path d="M450 5029 c0 -5 5 -7 10 -4 6 3 10 8 10 11 0 2 -4 4 -10 4 -5 0 -10
-5 -10 -11z"/>
<path d="M383 5013 c-7 -3 -13 -14 -13 -26 l0 -20 -23 21 c-13 12 -29 22 -35
22 -16 0 -15 -27 1 -33 6 -3 0 -6 -15 -6 -16 -1 -28 -5 -28 -11 0 -5 -9 -10
-21 -10 -13 0 -23 10 -30 30 -6 17 -14 30 -18 30 -15 0 -21 -13 -11 -25 7 -8
4 -19 -9 -34 -14 -16 -21 -18 -25 -9 -3 7 -3 3 0 -9 13 -54 13 -62 -2 -56 -8
3 -14 -1 -14 -7 0 -7 -10 -1 -23 13 -28 34 -41 34 -33 3 3 -14 1 -28 -5 -32
-6 -3 -9 -19 -5 -35 4 -22 2 -29 -10 -29 -9 0 -18 9 -21 20 -9 35 -38 20 -41
-23 -3 -32 0 -37 17 -37 19 0 20 -2 9 -20 -10 -15 -10 -22 0 -32 6 -6 12 -27
12 -44 0 -34 15 -54 23 -32 2 7 4 -8 4 -34 1 -54 -3 -60 -17 -23 -7 18 -14 23
-26 18 -10 -4 -15 -2 -11 3 3 6 2 16 -4 24 -13 22 -12 -323 2 -354 16 -34 44
-39 58 -10 6 13 14 24 18 25 81 5 109 4 115 -5 5 -7 10 -7 17 -1 12 13 -17 50
-47 59 -36 12 -27 35 12 32 43 -4 100 -48 83 -65 -6 -6 -8 -13 -5 -16 8 -9 38
6 32 16 -3 5 4 9 15 9 12 0 21 -6 21 -14 0 -8 11 -17 24 -20 13 -3 32 -9 41
-13 12 -4 16 -2 14 6 -3 7 -9 13 -14 14 -13 2 -45 29 -45 39 0 4 12 6 27 5 22
-2 27 2 28 22 0 13 6 26 14 29 10 3 12 -2 8 -20 -5 -17 -1 -27 13 -36 21 -13
36 0 24 19 -4 8 3 9 27 3 19 -4 42 -7 52 -6 14 1 16 -4 11 -20 -5 -17 -3 -20
10 -15 22 9 66 -13 66 -32 1 -14 2 -14 14 2 24 31 95 21 149 -22 9 -8 37 -14
62 -14 34 0 45 -4 46 -16 0 -11 2 -12 6 -3 4 10 10 10 28 -2 13 -9 26 -12 29
-7 3 5 27 5 53 0 26 -5 76 -10 111 -10 52 -1 61 -3 51 -15 -6 -8 -8 -14 -4
-14 4 0 2 -7 -5 -15 -11 -13 -15 -13 -21 -3 -7 10 -9 9 -9 -2 0 -9 4 -20 10
-26 17 -17 17 -108 0 -120 -12 -10 -12 -16 -1 -40 8 -16 15 -38 16 -49 2 -11
6 -32 10 -47 5 -18 3 -28 -4 -28 -16 0 -14 -13 7 -36 9 -10 17 -28 16 -39 -3
-56 -5 -65 -14 -65 -5 0 -9 3 -9 8 1 4 1 16 0 27 -2 19 -2 19 -12 2 -10 -17
-12 -17 -23 -2 -10 14 -12 12 -14 -15 -1 -19 2 -29 8 -25 5 3 19 1 30 -5 l21
-11 -21 -19 c-21 -18 -12 -39 11 -25 6 4 13 -2 16 -14 3 -11 9 -19 13 -16 4 2
5 -7 2 -21 -4 -24 -8 -25 -61 -22 -43 2 -57 7 -59 20 -2 11 5 18 19 20 12 2
24 9 27 16 2 7 -2 10 -12 6 -9 -3 -16 -1 -16 5 0 6 -12 11 -26 11 -14 0 -23
-4 -19 -10 3 -5 1 -10 -4 -10 -6 0 -10 8 -9 18 3 39 -2 50 -21 45 -19 -5 -37
22 -21 32 6 3 -12 28 -38 54 -40 42 -49 47 -62 35 -9 -7 -37 -15 -64 -18 -40
-4 -46 -2 -36 9 16 20 5 33 -38 45 -48 13 -107 13 -155 -1 -34 -9 -41 -8 -57
11 -11 12 -27 20 -37 18 -21 -5 -78 20 -68 30 4 4 19 8 33 9 49 5 53 6 48 19
-2 6 -2 15 2 18 9 10 9 86 0 86 -4 0 -8 -5 -8 -11 0 -5 -8 -9 -17 -8 -10 1
-26 -1 -35 -4 -45 -17 -50 -17 -55 3 -3 11 -9 20 -14 20 -5 0 -9 9 -9 19 0 26
-10 51 -21 51 -5 0 -9 -6 -9 -13 0 -28 -22 -37 -52 -21 -21 11 -33 12 -42 5
-7 -6 -16 -8 -19 -4 -12 12 -7 23 11 23 14 0 15 2 2 10 -23 15 -30 12 -30 -10
0 -31 -28 -36 -54 -11 -17 16 -26 19 -31 11 -4 -7 -2 -16 5 -20 7 -4 10 -12 7
-17 -4 -6 4 -16 18 -23 20 -11 26 -10 40 4 20 19 35 21 35 3 0 -16 -47 -61
-72 -70 -27 -9 -22 -24 22 -67 35 -35 38 -40 23 -49 -10 -5 -15 -13 -11 -17 4
-4 15 -1 24 7 14 11 18 11 30 -6 19 -26 18 -59 -1 -51 -11 4 -14 -3 -12 -34 1
-30 6 -40 19 -40 53 0 62 -29 22 -71 l-26 -28 21 -27 c11 -15 21 -41 21 -59 0
-35 18 -95 29 -95 3 0 15 -16 25 -35 16 -30 18 -41 8 -74 -16 -52 -16 -54 13
-47 14 4 25 2 25 -3 0 -13 -20 -18 -57 -15 -18 1 -32 -1 -32 -5 2 -16 -15 -51
-25 -51 -6 0 -16 10 -21 23 -8 18 -20 23 -67 27 -63 6 -69 0 -41 -40 15 -22
15 -23 0 -17 -20 8 -35 -12 -17 -23 9 -6 7 -11 -10 -20 l-23 -12 32 -15 c18
-9 31 -23 31 -34 0 -18 36 -59 52 -59 4 0 8 6 8 13 0 8 17 12 47 13 31 1 50 6
57 17 9 14 12 14 34 -1 20 -13 25 -13 33 -1 9 15 11 10 13 -35 1 -24 9 -34 45
-53 55 -29 64 -38 31 -30 -14 3 -32 2 -40 -3 -11 -7 -7 -10 17 -10 36 0 51
-15 25 -25 -15 -6 -13 -9 11 -21 15 -8 27 -22 27 -30 0 -9 9 -27 20 -41 11
-14 20 -40 20 -58 0 -30 -3 -33 -39 -39 -22 -3 -41 -11 -43 -16 -2 -7 -15 -5
-35 5 -35 18 -133 30 -133 17 0 -5 -17 -15 -39 -22 -29 -9 -43 -10 -60 -1 -30
16 -57 6 -78 -30 -18 -30 -40 -38 -49 -16 -2 7 -25 14 -54 15 l-50 2 0 -40 c0
-45 6 -48 52 -20 34 20 88 27 88 11 0 -5 -6 -11 -12 -13 -9 -3 -8 -11 5 -31
10 -16 13 -28 7 -32 -16 -10 -12 -29 10 -53 26 -28 66 -29 75 -2 9 27 1 36
-37 44 l-33 8 25 10 c34 14 130 19 151 7 10 -5 20 -5 23 0 8 13 57 20 80 11
12 -4 50 -4 86 1 51 6 68 4 81 -7 8 -8 23 -14 31 -14 9 0 18 -7 21 -14 7 -18
-19 -72 -41 -87 -16 -10 -16 -10 0 -5 10 3 28 2 40 -3 l22 -8 -22 -12 c-27
-14 -28 -28 -3 -36 13 -4 18 -12 14 -21 -3 -8 3 -25 14 -37 11 -12 23 -34 27
-48 5 -23 11 -26 43 -25 50 1 54 -27 6 -32 -18 -2 -33 -7 -33 -12 0 -16 -73
-51 -100 -48 -15 1 -35 -4 -44 -11 -10 -9 -16 -10 -16 -2 0 6 5 11 12 11 6 0
9 3 5 6 -12 13 -105 -7 -111 -24 -3 -9 -9 -24 -14 -32 -31 -54 -39 -75 -22
-65 5 3 18 1 28 -4 14 -7 25 -6 40 5 16 11 27 12 41 4 27 -14 58 -13 64 3 3 9
9 8 22 -5 14 -13 23 -14 47 -6 20 7 42 7 74 -1 25 -6 49 -9 55 -6 5 4 9 2 9
-2 0 -15 -38 -34 -45 -22 -5 7 -11 6 -21 -2 -20 -17 -17 -37 9 -50 12 -7 26
-18 30 -26 5 -7 12 -11 17 -8 5 3 14 -11 20 -30 6 -19 18 -35 25 -35 20 0 38
-37 23 -46 -19 -12 -164 -33 -303 -44 -72 -5 -164 -17 -205 -25 -93 -18 -161
-21 -225 -10 -51 8 -66 18 -78 48 -3 9 -13 17 -20 17 -33 0 -40 -40 -23 -117
8 -37 35 -45 43 -13 4 15 15 20 47 22 22 1 59 3 81 4 22 1 85 12 140 24 74 17
140 23 257 25 88 1 163 7 170 12 14 12 59 22 128 29 32 4 51 1 65 -10 18 -15
19 -17 3 -29 -28 -22 -27 -51 2 -55 28 -4 60 -29 60 -46 0 -6 -7 -3 -14 7 -30
39 -57 6 -60 -73 -1 -18 -9 -27 -31 -33 -16 -5 -38 -14 -49 -19 -12 -6 -22 -6
-29 1 -16 16 -27 13 -21 -4 4 -8 1 -22 -6 -30 -10 -13 -9 -15 9 -15 37 0 108
-56 116 -90 9 -43 -1 -53 -48 -46 -35 6 -39 5 -27 -9 7 -8 23 -15 36 -15 13 0
34 -11 45 -24 19 -22 24 -23 43 -11 31 21 64 8 82 -32 10 -20 29 -39 48 -47
42 -18 61 -42 76 -101 7 -27 22 -60 33 -72 l20 -23 -35 -15 c-20 -8 -38 -20
-41 -27 -3 -10 -15 -7 -45 10 -23 13 -46 20 -52 17 -15 -9 -43 23 -36 40 4 11
-1 15 -18 15 -12 0 -26 3 -29 7 -4 3 -19 8 -33 9 -15 2 -32 12 -40 22 -7 11
-26 24 -41 31 -15 6 -39 27 -52 46 -15 22 -32 35 -46 35 -12 0 -25 3 -29 7 -4
5 -12 9 -17 9 -5 1 -13 2 -18 3 -6 0 -22 12 -37 26 -44 41 -64 4 -21 -41 15
-17 33 -24 60 -24 21 0 49 -7 62 -16 13 -9 28 -13 33 -10 6 3 13 -6 17 -22 3
-15 14 -35 22 -45 9 -9 13 -20 10 -23 -3 -4 -2 -15 4 -25 7 -15 5 -24 -10 -40
-11 -12 -24 -18 -30 -14 -6 3 -11 -1 -11 -9 0 -11 -8 -13 -37 -9 -47 7 -46 6
-32 36 13 28 5 62 -11 52 -6 -4 -9 -1 -8 6 2 6 -2 13 -9 16 -6 2 -16 -12 -23
-32 -7 -20 -23 -41 -38 -50 -15 -8 -21 -14 -14 -15 7 0 11 -4 8 -9 -3 -5 7
-14 23 -19 16 -6 32 -21 36 -33 11 -35 34 -54 48 -40 6 6 23 11 38 11 32 0 58
25 34 34 -18 7 -20 35 -2 38 6 0 17 2 22 3 6 2 15 3 22 4 6 0 13 10 15 21 3
19 4 19 31 -6 23 -21 27 -32 22 -54 -5 -24 -3 -29 16 -32 12 -2 24 -10 26 -18
4 -12 3 -13 -5 -1 -7 10 -16 3 -36 -31 -32 -55 -32 -58 -1 -58 16 0 28 7 32
18 3 9 15 37 26 61 15 32 17 46 9 49 -15 5 -16 29 -2 37 6 4 17 1 25 -5 8 -6
18 -9 23 -6 5 3 20 -3 32 -14 13 -11 28 -20 34 -20 6 0 23 -31 37 -69 l26 -69
-23 -29 c-21 -28 -26 -29 -69 -23 -25 4 -48 3 -51 -2 -3 -4 -13 -8 -22 -8 -9
0 -28 -11 -42 -25 -23 -22 -30 -24 -60 -15 -28 8 -37 7 -46 -5 -18 -24 -24
-18 -21 22 2 36 0 38 -26 36 -16 -1 -25 2 -21 8 3 6 3 26 0 45 -6 30 -11 34
-36 34 -29 0 -30 -1 -30 -50 0 -27 -3 -50 -6 -50 -21 0 -43 25 -48 55 -5 27
-3 40 14 57 26 28 26 41 0 33 -12 -4 -20 -2 -20 5 0 14 -38 4 -61 -17 -9 -7
-33 -16 -52 -20 -27 -4 -38 -12 -47 -34 -14 -33 -22 -36 -40 -14 -7 8 -23 15
-36 15 -17 0 -24 6 -24 18 0 15 -14 22 -67 33 -58 12 -68 17 -73 39 -4 16 -12
23 -21 20 -17 -5 -144 0 -216 9 -6 0 -14 9 -16 19 -3 9 -5 -17 -6 -58 -1 -53
4 -82 14 -97 9 -13 13 -32 10 -45 -4 -17 3 -32 25 -56 16 -18 35 -42 40 -53 6
-10 17 -19 24 -19 7 0 21 -17 30 -37 23 -51 64 -96 80 -90 17 7 51 -27 42 -41
-3 -6 1 -12 9 -16 17 -6 21 -36 5 -36 -32 0 6 -50 56 -72 13 -6 27 -20 30 -31
7 -23 17 -36 55 -76 14 -15 23 -33 21 -40 -2 -7 16 -32 42 -55 46 -43 60 -76
31 -76 -23 0 -18 -17 7 -24 13 -3 286 -6 606 -6 549 1 584 2 577 18 -4 9 -9
25 -12 34 -3 9 -11 14 -19 11 -14 -5 -18 6 -14 40 2 24 -18 47 -41 47 -23 0
-24 7 -5 26 8 7 17 19 20 26 5 11 7 11 12 0 3 -7 12 -19 20 -26 8 -8 14 -27
14 -43 0 -20 3 -24 9 -14 6 10 16 1 36 -34 20 -34 30 -43 36 -33 6 9 9 10 9 1
0 -7 6 -10 14 -7 7 3 21 -6 30 -20 l16 -26 1930 0 1930 0 0 1234 0 1234 -67
21 c-36 12 -70 21 -75 21 -5 0 -48 27 -96 59 -69 47 -109 66 -192 91 -114 33
-203 47 -245 36 -15 -4 -40 -21 -55 -38 l-28 -30 -60 41 c-34 23 -63 41 -66
41 -3 0 -21 11 -41 24 -20 14 -73 37 -118 52 -55 18 -102 43 -143 74 -47 36
-75 50 -123 59 -58 12 -61 13 -61 42 0 22 -13 43 -47 80 -76 82 -127 98 -191
59 l-33 -20 -50 25 c-50 26 -195 51 -230 40 -14 -5 -16 5 -11 88 4 92 -12 228
-54 435 -22 115 -83 201 -151 216 -25 6 -28 11 -28 49 0 28 -12 66 -33 109
-17 36 -32 73 -32 83 0 9 -13 47 -29 83 -16 37 -35 90 -42 117 -14 56 -39 108
-103 209 -59 96 -100 136 -135 136 -49 0 -114 35 -156 85 -57 68 -65 75 -80
75 -8 0 -47 17 -87 38 -72 37 -74 37 -179 34 -85 -2 -109 1 -119 13 -7 8 -19
15 -26 15 -8 0 -22 4 -32 9 -9 4 -46 18 -82 30 -107 35 -201 25 -275 -28 -48
-34 -60 -38 -68 -17 -3 7 -18 14 -32 14 -15 0 -31 6 -36 13 -5 8 -9 9 -9 3 0
-6 -24 -24 -54 -40 -30 -16 -53 -31 -51 -34 2 -3 -12 -21 -32 -40 -19 -19 -30
-36 -24 -38 6 -2 11 -12 11 -22 0 -10 6 -20 13 -23 18 -6 -14 1 -40 8 -16 5
-30 -1 -54 -24 -31 -30 -57 -42 -43 -20 3 6 -12 -1 -35 -15 -22 -14 -47 -26
-55 -26 -12 0 -58 -53 -106 -126 -35 -51 -86 -104 -101 -104 -25 0 -62 -46
-56 -69 3 -11 0 -22 -7 -25 -8 -3 -7 -7 3 -14 10 -7 6 -13 -19 -26 -40 -20
-46 -20 -31 -2 6 8 11 18 10 22 -4 24 3 44 27 69 23 25 24 28 9 45 -15 17 -20
17 -56 5 -23 -9 -41 -10 -44 -4 -4 5 -17 9 -31 9 -14 0 -24 6 -24 14 0 8 -6
17 -12 19 -8 3 -5 6 5 6 11 1 30 10 44 21 l26 20 -86 0 c-70 0 -85 -3 -81 -14
3 -9 -3 -17 -16 -21 -31 -10 -36 1 -17 34 24 40 22 44 -18 37 -22 -4 -35 -3
-35 4 0 18 -29 11 -52 -14 -26 -27 -68 -43 -68 -26 0 15 -18 31 -52 49 -28 14
-40 38 -15 28 7 -3 21 1 30 8 20 15 12 47 -11 43 -8 -2 -17 2 -19 9 -3 7 8 13
28 15 34 3 54 33 39 58 -7 11 -11 11 -24 1 -8 -7 -24 -10 -36 -6 -11 4 -20 2
-20 -4 0 -6 -7 -11 -16 -11 -12 0 -14 3 -6 13 11 13 11 42 -1 53 -3 3 -16 -5
-29 -19 -26 -28 -93 -55 -85 -34 2 6 -5 28 -16 47 -33 55 -39 58 -59 41 -10
-9 -23 -17 -28 -17 -6 -1 -12 -2 -15 -3 -3 0 -1 -10 5 -21 14 -26 -7 -28 -25
-3 -10 14 -10 21 2 40 18 27 10 56 -14 51 -12 -2 -22 6 -30 24 -15 35 -37 36
-65 3 -44 -51 -52 -16 -13 54 14 23 25 44 25 46 0 6 -26 12 -37 8z m-169 -89
c9 -3 16 -13 16 -21 0 -20 -34 -12 -38 10 -4 19 -1 20 22 11z m413 -191 c-3
-3 -11 -2 -17 2 -9 6 -9 10 1 16 14 8 27 -7 16 -18z m-497 -23 c-11 -21 -12
-21 -25 -3 -19 24 -19 37 0 30 8 -4 18 -1 22 5 12 21 15 -9 3 -32z m490 -26
c0 -8 -4 -12 -10 -9 -5 3 -10 10 -10 16 0 5 5 9 10 9 6 0 10 -7 10 -16z m-95
-42 c-4 -9 -9 -26 -10 -36 -1 -11 -7 -22 -13 -24 -7 -2 -12 -10 -12 -18 0 -8
-7 -14 -16 -14 -14 0 -14 3 -4 15 10 12 10 15 -1 15 -7 0 -2 11 13 28 14 15
29 38 33 52 5 14 10 19 13 12 2 -7 1 -20 -3 -30z m-375 18 c0 -5 -4 -10 -10
-10 -5 0 -10 -6 -10 -14 0 -8 -4 -17 -9 -21 -8 -4 -9 37 -2 53 3 7 31 0 31 -8z
m610 -10 c0 -5 -7 -10 -15 -10 -8 0 -15 5 -15 10 0 6 7 10 15 10 8 0 15 -4 15
-10z m-180 -15 c0 -8 -4 -15 -10 -15 -5 0 -10 7 -10 15 0 8 5 15 10 15 6 0 10
-7 10 -15z m978 -100 c-14 -43 -45 -65 -33 -24 11 40 40 91 43 77 1 -8 -3 -32
-10 -53z m-1398 25 c0 -5 -4 -10 -10 -10 -5 0 -10 5 -10 10 0 6 5 10 10 10 6
0 10 -4 10 -10z m510 -5 c0 -3 -9 -15 -20 -27 -22 -24 -26 -18 -10 13 10 17
30 27 30 14z m286 -36 c3 -6 2 -15 -4 -21 -12 -12 -55 8 -47 23 8 12 42 12 51
-2z m49 -19 c3 -5 -1 -10 -9 -10 -9 0 -16 5 -16 10 0 6 4 10 9 10 6 0 13 -4
16 -10z m477 -12 c-7 -7 -12 -8 -12 -2 0 14 12 26 19 19 2 -3 -1 -11 -7 -17z
m-485 -34 c-3 -3 -12 -4 -19 -1 -8 3 -5 6 6 6 11 1 17 -2 13 -5z m-770 -60
c-3 -3 -12 -4 -19 -1 -8 3 -5 6 6 6 11 1 17 -2 13 -5z m-197 -8 c0 -3 -4 -8
-10 -11 -5 -3 -10 -1 -10 4 0 6 5 11 10 11 6 0 10 -2 10 -4z m65 -76 c0 -22
-23 -23 -35 -1 -9 19 -8 21 12 17 13 -1 23 -9 23 -16z m857 5 c0 -5 -5 -11
-11 -13 -6 -2 -11 4 -11 13 0 9 5 15 11 13 6 -2 11 -8 11 -13z m401 -207 c8
-28 2 -34 -17 -19 -8 7 -12 19 -9 27 8 21 20 17 26 -8z m-120 -38 c9 -11 17
-25 17 -30 0 -6 4 -10 8 -10 4 0 8 -9 9 -20 1 -15 -4 -20 -22 -20 -22 0 -37
19 -39 50 -1 8 -4 20 -8 26 -7 11 -1 24 11 24 4 0 14 -9 24 -20z m47 4 c0 -8
-4 -12 -10 -9 -5 3 -10 10 -10 16 0 5 5 9 10 9 6 0 10 -7 10 -16z m1481 -135
c10 -5 36 -9 58 -9 68 0 65 -29 -4 -32 -52 -2 -54 -18 -3 -19 24 -1 53 -4 66
-7 26 -8 102 -70 102 -84 0 -5 7 -17 16 -26 15 -14 15 -17 -2 -29 -10 -7 -37
-13 -61 -13 -24 0 -43 -4 -43 -10 0 -5 -9 -10 -20 -10 -11 0 -20 -4 -20 -10 0
-5 -12 -10 -26 -10 -19 0 -25 -4 -20 -15 4 -12 0 -14 -20 -9 -16 4 -31 1 -42
-9 -9 -8 -34 -20 -54 -28 -20 -7 -52 -27 -72 -45 -20 -18 -45 -39 -56 -47 -12
-8 -23 -28 -25 -43 -2 -16 -4 -31 -4 -34 -1 -3 -5 1 -9 8 -6 8 -16 0 -35 -29
-32 -49 -34 -74 -6 -91 11 -7 43 -49 72 -93 43 -67 51 -88 53 -130 0 -27 6
-51 13 -53 15 -5 41 -56 41 -81 0 -11 7 -42 16 -68 16 -46 16 -49 -4 -88 -12
-22 -26 -58 -31 -80 -5 -22 -12 -47 -15 -55 -5 -12 5 -20 41 -33 27 -9 58 -17
70 -17 12 0 34 -11 49 -25 15 -14 34 -23 41 -20 8 2 11 0 8 -5 -3 -6 1 -10 10
-10 9 0 27 -7 40 -16 15 -10 25 -12 25 -5 0 5 7 8 15 5 8 -4 13 -10 10 -14 -3
-4 4 -10 15 -13 25 -6 26 -24 1 -32 -10 -3 -26 -14 -36 -25 -18 -19 -17 -20 6
-21 18 0 20 -2 8 -7 -28 -12 -102 -82 -87 -82 8 0 49 18 91 40 41 22 82 40 91
40 28 0 29 -39 1 -82 -18 -27 -25 -48 -21 -64 5 -19 0 -28 -31 -47 -21 -13
-48 -27 -61 -31 -12 -4 -19 -12 -16 -18 8 -13 -10 -25 -56 -38 -19 -6 -43 -17
-54 -25 -16 -12 -17 -16 -4 -29 11 -10 18 -12 26 -4 7 7 14 4 24 -11 16 -25
29 -28 22 -3 -5 16 -5 16 9 0 8 -10 17 -15 20 -12 3 3 3 -3 0 -15 -4 -15 -1
-21 12 -21 10 0 15 5 12 13 -3 7 1 21 9 32 13 18 15 18 38 -4 17 -16 25 -19
28 -10 3 8 12 -1 21 -20 13 -25 14 -38 6 -53 -8 -15 -8 -19 0 -14 6 4 11 3 11
-3 0 -15 -21 -25 -29 -14 -3 5 -15 13 -25 17 -19 6 -19 6 -3 -12 23 -25 21
-35 -3 -27 -11 4 -20 2 -20 -4 0 -6 -5 -11 -10 -11 -6 0 -8 12 -5 27 l5 28
-12 -27 c-13 -32 -28 -37 -28 -10 -1 13 -4 11 -14 -7 -13 -23 -14 -23 -19 -5
-4 17 -5 17 -6 -3 0 -12 -5 -24 -9 -27 -4 -2 -7 12 -5 32 2 29 1 32 -5 13 -4
-14 -13 -26 -20 -29 -7 -2 -10 2 -6 11 7 19 -17 17 -40 -2 -9 -7 -16 -10 -16
-5 0 4 -5 3 -12 -4 -16 -16 -41 -16 -32 1 8 12 -17 -5 -44 -30 -7 -7 -19 -13
-25 -13 -8 1 -6 5 3 13 8 7 22 21 30 32 8 12 9 15 1 9 -17 -15 -81 3 -99 28
-7 10 -18 16 -23 13 -5 -4 -9 -3 -9 2 -1 24 -18 35 -39 24 -17 -10 -21 -9 -21
4 0 18 -19 20 -25 2 -6 -14 -94 -15 -104 0 -3 5 -24 20 -46 33 -22 13 -64 46
-92 74 -51 47 -53 48 -53 23 0 -20 4 -24 20 -20 15 4 20 0 20 -14 0 -10 5 -24
11 -30 12 -12 -16 -53 -37 -53 -6 0 -37 -18 -68 -41 -32 -23 -60 -38 -63 -35
-4 3 -1 6 6 6 7 0 9 5 6 10 -9 14 -42 12 -42 -2 -5 -74 -39 -138 -74 -138 -11
0 -18 4 -15 8 11 18 -10 30 -46 23 l-37 -6 19 -42 c10 -24 15 -43 10 -43 -6 0
-10 -6 -10 -14 0 -9 7 -13 20 -11 26 5 25 -9 -2 -35 -16 -15 -19 -23 -11 -31
16 -16 -4 -69 -27 -69 -10 0 -20 9 -23 20 -3 13 -10 18 -21 14 -9 -3 -16 -2
-16 4 0 6 -2 17 -6 25 -3 9 6 19 26 27 27 11 33 11 42 -1 8 -11 9 -10 4 4 -3
10 -6 23 -6 28 0 4 -20 14 -45 21 l-45 14 20 37 c24 44 24 47 7 47 -9 0 -12
13 -10 43 2 32 1 37 -6 22 -8 -17 -10 -18 -10 -2 -1 9 9 27 21 39 20 20 20 22
3 35 -13 9 -22 10 -29 3 -5 -5 -16 -10 -22 -10 -14 0 -64 43 -64 55 0 4 27 5
59 2 45 -4 63 -2 72 9 10 12 9 16 -9 21 -12 3 -28 16 -37 29 -19 29 -10 76 14
72 9 -2 16 4 16 12 0 10 -8 14 -25 12 -45 -5 -72 -13 -66 -19 3 -3 -6 -12 -21
-20 -30 -16 -35 -13 -35 22 0 29 -16 44 -28 26 -5 -9 -15 -3 -32 17 -13 16
-31 32 -39 35 -8 3 9 6 36 6 28 0 61 -6 75 -14 29 -16 90 -20 90 -5 0 6 -6 10
-13 10 -7 0 -18 9 -25 21 -8 12 -9 18 -4 15 20 -12 35 22 23 55 -6 18 -11 45
-11 60 0 15 -4 31 -10 34 -6 3 -10 -5 -10 -19 0 -34 -33 -43 -59 -17 -25 25
-51 27 -51 5 0 -19 50 -74 67 -74 15 0 18 -26 4 -34 -5 -3 -14 1 -21 8 -6 8
-36 18 -66 22 -38 4 -54 11 -54 21 0 8 8 17 19 20 15 4 17 8 7 28 -6 13 -14
21 -19 18 -15 -9 -55 27 -62 56 -3 16 -13 32 -21 35 -21 8 -17 26 5 26 11 0
26 7 35 15 29 29 50 10 35 -32 -6 -16 -5 -23 4 -23 7 0 31 -9 52 -20 23 -12
41 -16 43 -10 2 5 10 10 18 10 12 0 12 -4 4 -20 -9 -18 -8 -20 15 -20 27 0 32
9 13 28 -9 9 -6 12 16 12 20 0 39 -12 67 -41 27 -29 45 -40 61 -37 15 2 21 9
18 18 -2 8 -4 30 -4 48 1 30 -2 33 -27 30 -18 -2 -36 5 -53 21 -29 27 -26 41
10 41 22 0 24 3 19 23 -8 24 -64 81 -73 73 -3 -3 -1 -16 5 -28 11 -25 -5 -80
-22 -75 -5 2 -12 19 -15 38 -5 33 -6 34 -47 31 -35 -2 -43 1 -48 19 -6 16 -1
27 15 39 l22 17 -31 22 c-17 12 -36 19 -42 15 -6 -3 -15 0 -20 7 -13 21 -11
26 15 33 33 8 44 43 19 61 -17 13 -17 14 1 21 10 4 32 2 47 -3 24 -10 29 -8
34 8 4 11 0 25 -9 34 -19 20 -66 37 -83 31 -25 -10 -13 3 17 19 22 11 30 23
30 42 0 25 -2 25 -44 20 -24 -4 -46 -4 -49 0 -4 3 7 22 23 43 25 31 34 36 60
32 27 -4 31 -8 27 -29 -3 -18 -1 -23 10 -19 10 4 13 1 8 -13 -5 -15 0 -21 23
-26 25 -5 30 -12 35 -47 6 -47 23 -70 36 -50 6 10 12 7 24 -12 9 -13 25 -27
35 -30 10 -4 29 -24 41 -47 13 -22 25 -39 27 -37 1 2 -7 33 -20 68 -21 60 -59
227 -85 375 -6 33 -24 87 -41 120 -16 33 -32 84 -36 112 -6 46 -2 63 27 130
19 43 36 80 39 83 3 3 11 23 19 45 13 37 41 75 57 75 4 0 13 -8 20 -17 12 -16
13 -14 14 20 0 24 5 40 15 43 8 3 17 14 20 25 4 10 12 19 20 19 19 0 66 26 59
33 -3 3 -3 11 2 18 5 9 10 6 16 -10 4 -13 17 -25 27 -28 25 -6 35 -32 17 -39
-29 -11 -25 -30 5 -26 16 2 29 8 29 13 0 5 10 5 22 0 33 -12 70 -2 64 18 -5
14 -4 14 5 1 10 -14 16 -11 47 17 30 28 38 31 45 18 7 -14 10 -14 24 1 12 11
28 14 57 11 58 -6 145 11 186 36 19 12 49 23 65 25 17 2 32 6 34 8 7 7 164 -7
182 -17z m-2498 -9 c27 -31 20 -39 -18 -22 -19 9 -35 22 -35 29 0 20 34 15 53
-7z m3244 -12 c-3 -8 -6 -5 -6 6 -1 11 2 17 5 13 3 -3 4 -12 1 -19z m-3002 2
c-3 -5 -11 -10 -16 -10 -6 0 -7 5 -4 10 3 6 11 10 16 10 6 0 7 -4 4 -10z m750
-18 c-3 -3 -11 0 -18 7 -9 10 -8 11 6 5 10 -3 15 -9 12 -12z m765 -23 c0 -6
-4 -7 -10 -4 -5 3 -10 11 -10 16 0 6 5 7 10 4 6 -3 10 -11 10 -16z m-1085
-169 c-3 -5 -10 -10 -16 -10 -5 0 -9 5 -9 10 0 6 7 10 16 10 8 0 12 -4 9 -10z
m-435 -19 c0 -12 -20 -25 -27 -18 -7 7 6 27 18 27 5 0 9 -4 9 -9z m1185 -57
c-9 -26 -20 -55 -25 -63 -13 -23 -5 41 8 65 6 11 13 28 17 38 3 10 8 16 11 13
3 -3 -2 -27 -11 -53z m-985 36 c0 -5 -4 -10 -10 -10 -5 0 -10 5 -10 10 0 6 5
10 10 10 6 0 10 -4 10 -10z m-74 -27 c-10 -10 -19 5 -10 18 6 11 8 11 12 0 2
-7 1 -15 -2 -18z m388 -9 c25 -9 19 -24 -9 -24 -24 0 -32 10 -18 23 8 8 8 8
27 1z m-521 -41 c-3 -7 -8 -13 -12 -13 -4 0 -8 6 -8 13 0 8 6 14 13 14 7 0 10
-6 7 -14z m287 7 c0 -5 -4 -10 -10 -10 -5 0 -10 5 -10 10 0 6 5 10 10 10 6 0
10 -4 10 -10z m-250 -10 c0 -5 -4 -10 -10 -10 -5 0 -10 5 -10 10 0 6 5 10 10
10 6 0 10 -4 10 -10z m450 -9 c0 -12 -20 -25 -27 -18 -7 7 6 27 18 27 5 0 9
-4 9 -9z m255 -10 c3 -5 2 -12 -3 -15 -5 -3 -9 1 -9 9 0 17 3 19 12 6z m-405
-11 c0 -5 -7 -10 -15 -10 -8 0 -15 5 -15 10 0 6 7 10 15 10 8 0 15 -4 15 -10z
m2135 -8 c40 -4 -9 -32 -93 -53 -88 -23 -132 -20 -95 6 11 8 41 22 67 32 42
17 61 19 121 15z m-2191 -52 c-6 -6 -10 -2 -11 12 -2 16 1 18 10 9 7 -7 8 -14
1 -21z m230 -45 c3 -9 0 -15 -9 -15 -9 0 -12 -6 -9 -15 4 -8 1 -15 -5 -15 -6
0 -12 -10 -12 -22 -1 -17 -2 -19 -6 -5 -2 9 -9 17 -14 17 -5 0 -9 9 -9 19 0
11 -6 22 -12 25 -7 4 -3 4 10 2 14 -3 22 1 22 10 0 19 36 18 44 -1z m1823 -30
c21 -11 38 -13 54 -6 13 4 48 9 77 10 45 0 52 -2 52 -18 0 -19 1 -19 55 0 61
21 103 24 158 8 31 -8 37 -14 37 -37 0 -16 4 -32 9 -37 5 -6 11 -30 14 -55 3
-25 13 -90 22 -145 9 -58 14 -123 11 -155 -4 -30 -6 -62 -5 -70 0 -8 2 -59 3
-113 1 -54 7 -102 12 -105 13 -10 16 -52 3 -52 -13 0 -48 40 -49 55 0 6 -20
18 -45 28 -43 18 -84 17 -125 -3 -21 -11 -150 -33 -156 -28 -2 3 9 20 26 38
48 52 42 88 -27 163 -32 34 -76 78 -97 97 -81 72 -97 91 -102 119 -4 19 -19
39 -40 53 -39 27 -61 67 -43 79 9 5 8 14 -5 33 -22 34 -15 43 50 72 30 13 53
27 52 31 -2 6 23 53 28 53 0 0 15 -7 31 -15z m-1502 -24 c4 5 15 9 26 9 11 0
18 -4 15 -9 -4 -5 0 -11 6 -14 7 -3 -9 -4 -37 -3 -27 0 -53 5 -57 11 -4 6 -8
2 -8 -7 0 -17 6 -20 59 -22 24 -1 44 -26 21 -26 -6 0 -8 -5 -4 -11 4 -8 11 -4
19 11 12 22 12 22 11 -9 0 -17 -4 -31 -7 -31 -4 0 -9 -9 -12 -21 -3 -11 -15
-23 -26 -26 -12 -3 -21 -14 -21 -24 0 -11 -7 -19 -15 -19 -8 0 -15 -6 -15 -12
0 -8 -3 -9 -8 -3 -4 6 -26 26 -50 44 -32 25 -40 36 -30 42 11 7 11 9 -1 9 -11
0 -11 3 -1 15 10 12 10 15 -4 15 -9 0 -16 5 -16 10 0 6 14 9 32 8 26 -2 33 1
36 17 11 68 9 66 47 51 20 -9 37 -11 40 -5z m-218 -53 c-3 -8 -6 -5 -6 6 -1
11 2 17 5 13 3 -3 4 -12 1 -19z m17 -22 c-3 -8 -1 -17 5 -21 18 -11 13 -37 -6
-33 -11 2 -17 11 -15 23 4 28 10 45 16 45 3 0 3 -6 0 -14z m301 -37 c-3 -4 4
-13 16 -19 13 -8 19 -18 16 -30 -3 -13 0 -17 9 -13 17 6 18 -2 3 -29 -11 -20
-12 -20 -24 -4 -8 11 -15 13 -20 7 -11 -19 -24 -12 -40 23 -13 27 -14 39 -5
55 6 12 15 21 21 21 6 0 7 6 3 13 -5 8 -3 8 9 -2 9 -7 14 -17 12 -22z m-1092
-84 c-3 -9 -8 -14 -10 -11 -3 3 -2 9 2 15 9 16 15 13 8 -4z m1163 -24 c-4 -5
7 -12 24 -16 39 -8 68 -55 35 -55 -8 0 -15 5 -15 10 0 6 -6 10 -14 10 -8 0
-16 7 -20 15 -3 8 -10 15 -16 15 -5 0 -10 -7 -10 -15 0 -9 -10 -15 -26 -15
-16 0 -24 5 -21 13 2 6 9 11 15 10 5 -1 18 7 27 17 19 21 30 27 21 11z m-519
-22 c8 -3 7 -8 -3 -17 -12 -11 -14 -10 -14 3 0 8 -5 15 -11 15 -5 0 -7 5 -3
11 4 7 9 7 13 2 3 -6 11 -12 18 -14z m-767 1 c0 -5 -5 -10 -11 -10 -5 0 -7 5
-4 10 3 6 8 10 11 10 2 0 4 -4 4 -10z m831 -43 c-1 -12 -15 -9 -19 4 -3 6 1
10 8 8 6 -3 11 -8 11 -12z m29 -37 c0 -5 -8 -10 -17 -10 -15 0 -16 2 -3 10 19
12 20 12 20 0z m370 -64 c0 -2 -7 -6 -15 -10 -8 -3 -15 -1 -15 4 0 6 7 10 15
10 8 0 15 -2 15 -4z m-720 -26 c0 -5 -5 -10 -11 -10 -5 0 -7 5 -4 10 3 6 8 10
11 10 2 0 4 -4 4 -10z m676 -89 c-4 -6 -14 -3 -27 10 -11 11 -17 25 -13 30 4
7 14 4 26 -9 11 -11 17 -25 14 -31z m68 -42 c11 -10 27 -18 35 -19 7 0 11 -6
7 -15 -3 -8 0 -15 6 -15 6 0 9 -2 6 -5 -9 -10 -57 6 -55 18 4 18 -30 19 -68 1
-41 -19 -48 -16 -40 18 4 16 19 30 41 38 19 8 35 19 35 24 1 6 4 2 6 -8 3 -11
15 -28 27 -37z m-1044 -186 c0 -7 -6 -13 -14 -13 -8 0 -23 -3 -33 -7 -17 -6
-17 -6 0 14 19 22 47 26 47 6z m2530 2 c0 -8 5 -15 12 -15 6 0 9 -2 6 -5 -3
-3 -24 -3 -48 1 -41 7 -42 7 -19 20 32 18 49 17 49 -1z m-1417 -62 c19 -6 22
-19 6 -29 -6 -3 -14 -1 -18 5 -4 6 -15 9 -24 5 -13 -5 -17 -1 -17 16 0 17 4
21 18 15 9 -4 25 -10 35 -12z m1792 -3 c22 -24 14 -93 -10 -83 -20 7 -19 -11
1 -28 14 -12 14 -14 0 -25 -15 -11 -15 -12 1 -18 17 -7 17 -8 1 -17 -10 -6
-18 -17 -18 -26 0 -10 -5 -13 -17 -9 -10 4 -14 4 -10 0 7 -7 -30 -44 -45 -44
-5 0 -8 12 -6 28 3 29 -18 62 -39 62 -23 0 -3 52 32 85 18 17 38 45 46 63 16
36 38 41 64 12z m-450 0 c8 -13 -5 -13 -25 0 -13 8 -13 10 2 10 9 0 20 -4 23
-10z m65 -25 c16 -9 19 -14 9 -15 -8 0 -24 7 -35 15 -24 18 -7 19 26 0z m180
-98 c0 -7 -6 -21 -12 -30 -12 -16 -14 -16 -26 4 -13 20 -12 21 7 16 14 -3 21
0 21 9 0 8 2 14 5 14 3 0 5 -6 5 -13z m-1680 -131 c0 -17 -2 -17 -22 -4 -13 9
-25 25 -26 38 -4 22 -4 22 22 4 14 -11 26 -27 26 -38z m1590 -46 c0 -5 -4 -10
-10 -10 -5 0 -10 5 -10 10 0 6 5 10 10 10 6 0 10 -4 10 -10z m225 -51 c-4 -11
-2 -19 4 -19 6 0 11 -11 11 -25 0 -27 -9 -32 -28 -13 -19 19 -27 0 -9 -20 19
-20 13 -32 -14 -32 -9 0 -19 -6 -22 -14 -3 -7 -22 -16 -42 -18 -31 -3 -38 -1
-45 17 -4 11 -15 27 -24 34 -14 12 -12 17 21 47 20 19 45 34 55 34 10 0 18 4
18 8 0 12 43 9 52 -3 4 -5 8 0 8 13 0 14 4 20 10 17 6 -4 8 -15 5 -26z m-1765
17 c0 -11 -19 -15 -25 -6 -3 5 1 10 9 10 9 0 16 -2 16 -4z m1607 -142 c-3 -3
-12 -4 -19 -1 -8 3 -5 6 6 6 11 1 17 -2 13 -5z m-1441 -42 c9 -14 11 -23 4
-27 -16 -10 -74 13 -86 33 -11 17 -8 18 28 16 27 -1 44 -8 54 -22z m-611 8 c3
-5 1 -10 -4 -10 -6 0 -11 5 -11 10 0 6 2 10 4 10 3 0 8 -4 11 -10z m32 -35 c9
-25 -4 -29 -17 -6 -7 15 -7 21 0 21 6 0 13 -7 17 -15z m18 -55 c3 -5 1 -10 -4
-10 -6 0 -11 5 -11 10 0 6 2 10 4 10 3 0 8 -4 11 -10z m1915 -86 c0 -8 -5 -12
-10 -9 -6 4 -8 11 -5 16 9 14 15 11 15 -7z m-1355 -84 c-3 -5 2 -10 12 -11 10
0 13 -3 6 -6 -16 -6 -17 -24 -1 -20 6 1 22 -18 35 -42 13 -25 32 -50 41 -57
14 -11 15 -15 3 -26 -11 -10 -14 -10 -18 0 -3 6 -11 12 -19 12 -8 0 -14 4 -14
8 0 5 -11 14 -25 20 -29 13 -37 59 -9 48 15 -6 15 -3 -1 21 -21 34 -45 54 -56
47 -5 -3 -9 0 -9 5 0 6 14 11 31 11 17 0 28 -4 24 -10z m275 -47 c0 -5 -4 -15
-10 -23 -11 -18 -25 -7 -17 15 6 15 27 21 27 8z m1058 -204 c22 -9 22 -9 5
-36 -25 -40 -32 -43 -92 -39 -58 4 -93 28 -96 66 -2 19 4 20 79 19 45 -1 91
-6 104 -10z m-1613 -29 c19 -36 19 -57 1 -67 -8 -4 -14 -17 -13 -27 2 -21 -12
-30 -29 -18 -15 9 -30 97 -16 88 14 -9 33 19 26 38 -11 28 15 17 31 -14z
m1455 -50 c0 -5 -2 -10 -4 -10 -3 0 -8 5 -11 10 -3 6 -1 10 4 10 6 0 11 -4 11
-10z m-1408 -60 c12 -11 18 -20 12 -20 -5 0 -3 -4 5 -9 10 -6 25 -4 44 5 26
14 30 14 43 -3 7 -10 14 -21 14 -25 0 -5 7 -8 16 -8 8 0 22 -7 31 -16 21 -21
6 -34 -48 -41 -24 -3 -51 -12 -60 -20 -14 -11 -18 -11 -28 0 -6 8 -8 22 -5 31
8 21 -26 49 -42 35 -13 -10 -27 52 -17 77 7 18 10 18 35 -6z m258 10 c0 -5 -4
-10 -9 -10 -5 0 -11 -10 -13 -22 -3 -21 -3 -21 -21 -3 -18 18 -18 19 5 31 28
16 38 17 38 4z m1040 0 c0 -5 -4 -10 -10 -10 -5 0 -10 5 -10 10 0 6 5 10 10
10 6 0 10 -4 10 -10z m6 -105 c-8 -53 -12 -63 -28 -62 -15 1 -18 6 -12 22 3
11 9 41 11 66 4 38 8 46 22 42 15 -4 16 -11 7 -68z m74 38 c0 -10 -7 -26 -14
-36 -11 -15 -15 -15 -25 -3 -7 9 -8 17 -2 20 5 3 12 0 14 -6 3 -7 6 -3 6 9 1
12 -5 24 -11 26 -7 3 -3 6 10 6 15 1 22 -5 22 -16z m-30 -88 c0 -8 -5 -15 -10
-17 -6 -2 -24 -62 -41 -133 -29 -123 -41 -155 -59 -155 -16 0 -20 33 -6 44 20
14 59 160 54 197 -3 20 0 29 14 32 13 4 18 15 18 37 0 28 2 31 15 20 8 -7 15
-18 15 -25z m-1299 -76 c31 -31 38 -43 29 -54 -15 -18 -2 -62 22 -80 18 -12
19 -15 6 -29 -14 -13 -18 -11 -37 15 -12 16 -29 29 -37 29 -10 0 -14 6 -10 15
3 8 0 18 -7 22 -36 23 -47 49 -36 86 5 20 14 37 19 37 6 0 28 -18 51 -41z m55
13 c1 -7 0 -8 -2 -3 -3 6 -12 7 -20 4 -8 -3 -14 0 -14 7 0 15 33 9 36 -8z
m289 -2 c3 -5 -1 -10 -9 -10 -9 0 -16 5 -16 10 0 6 4 10 9 10 6 0 13 -4 16
-10z m820 -60 c-19 -38 -35 -76 -35 -85 0 -8 -4 -15 -10 -15 -5 0 -10 2 -10 5
0 10 80 165 85 165 3 0 -11 -31 -30 -70z m-855 56 c0 -3 -4 -8 -10 -11 -5 -3
-10 -1 -10 4 0 6 5 11 10 11 6 0 10 -2 10 -4z m65 -96 c3 -5 -1 -10 -10 -10
-9 0 -13 5 -10 10 3 6 8 10 10 10 2 0 7 -4 10 -10z m-47 -62 c8 -10 21 -18 30
-16 10 1 23 -1 29 -5 9 -6 11 -3 7 7 -10 26 12 18 24 -9 6 -14 19 -25 28 -25
11 0 15 -6 11 -20 -3 -11 -2 -18 3 -15 12 7 33 -51 25 -74 -3 -11 -15 -23 -26
-26 -10 -4 -17 -11 -13 -16 3 -6 12 -8 19 -5 7 2 16 2 20 -2 4 -4 12 -7 18 -7
7 0 11 -12 9 -28 -3 -31 12 -35 40 -10 32 29 29 8 -12 -80 -25 -54 -46 -87
-55 -87 -21 0 -31 29 -17 50 8 13 6 21 -9 34 -24 20 -49 21 -49 1 0 -9 -9 -15
-25 -15 -30 0 -32 13 -6 37 27 26 37 81 16 89 -9 4 -21 2 -28 -5 -6 -6 -17
-11 -24 -11 -8 0 -24 -11 -37 -25 -13 -14 -28 -25 -34 -25 -14 0 -47 -60 -43
-79 1 -8 -2 -24 -8 -35 -6 -12 -15 -39 -19 -61 -5 -22 -13 -39 -18 -38 -5 1
-7 -19 -5 -43 2 -29 -1 -44 -9 -44 -8 0 -11 -15 -8 -46 3 -40 1 -45 -16 -40
-17 4 -18 0 -14 -47 3 -29 2 -61 -2 -72 -6 -18 -9 -17 -28 14 -19 31 -19 37
-7 80 8 25 16 73 19 106 6 75 30 161 45 157 6 -1 11 7 11 17 0 11 9 26 20 34
22 16 32 86 16 120 -6 12 -4 17 8 17 9 0 18 12 22 28 12 54 11 54 64 49 28 -3
57 -10 66 -17 11 -10 18 -10 26 -2 7 7 5 20 -9 44 -11 18 -18 38 -16 45 2 7
-12 27 -33 45 -29 25 -44 32 -71 29 -27 -2 -33 0 -27 11 5 7 7 21 6 31 -3 16
1 17 35 11 21 -4 44 -16 51 -26z m832 -73 c0 -8 -7 -15 -15 -15 -16 0 -20 12
-8 23 11 12 23 8 23 -8z m110 -5 c0 -5 -5 -10 -11 -10 -5 0 -7 5 -4 10 3 6 8
10 11 10 2 0 4 -4 4 -10z m-2030 -20 c0 -5 -7 -10 -15 -10 -8 0 -15 5 -15 10
0 6 7 10 15 10 8 0 15 -4 15 -10z m2030 -20 c0 -5 -4 -10 -10 -10 -5 0 -10 5
-10 10 0 6 5 10 10 10 6 0 10 -4 10 -10z m-10 -40 c0 -5 -5 -10 -11 -10 -5 0
-7 5 -4 10 3 6 8 10 11 10 2 0 4 -4 4 -10z m-1135 -20 c3 -5 15 -10 26 -10 25
0 25 -20 -1 -27 -11 -3 -20 -10 -20 -16 0 -17 -27 15 -35 41 -5 16 -2 22 9 22
8 0 18 -4 21 -10z m1125 -60 c0 -5 -4 -10 -10 -10 -5 0 -10 5 -10 10 0 6 5 10
10 10 6 0 10 -4 10 -10z m-2160 -46 c0 -8 -4 -12 -10 -9 -5 3 -10 10 -10 16 0
5 5 9 10 9 6 0 10 -7 10 -16z m1040 -26 c0 -16 -3 -19 -11 -11 -6 6 -8 16 -5
22 11 17 16 13 16 -11z m-320 -8 c11 -7 12 -10 2 -10 -9 0 -11 -7 -7 -20 4
-12 8 -37 10 -57 2 -20 9 -40 17 -44 18 -12 -4 -12 -35 0 -20 8 -23 15 -19 40
3 25 -1 36 -23 53 l-27 21 23 13 c29 16 39 17 59 4z m1430 0 c0 -5 -4 -10 -10
-10 -5 0 -10 5 -10 10 0 6 5 10 10 10 6 0 10 -4 10 -10z m-862 -70 c7 -11 9
-20 4 -20 -4 0 -13 9 -20 20 -7 11 -9 20 -4 20 4 0 13 -9 20 -20z m852 -10 c0
-5 -5 -10 -11 -10 -5 0 -7 5 -4 10 3 6 8 10 11 10 2 0 4 -4 4 -10z m-611 -50
c24 -47 26 -54 9 -45 -7 4 -5 0 6 -9 13 -11 22 -41 32 -113 8 -54 17 -117 20
-139 7 -44 -8 -66 -29 -45 -16 16 -23 14 -35 -15 -17 -37 -32 -20 -32 37 0 46
11 64 24 37 3 -7 3 -2 -1 12 -3 14 -14 31 -24 38 -18 12 -18 15 -4 42 9 17 14
49 13 72 -2 31 1 43 11 43 8 0 16 6 19 13 2 6 -1 12 -7 12 -6 0 -11 7 -11 15
0 8 -7 15 -15 15 -15 0 -20 -16 -16 -57 2 -28 -33 -32 -48 -6 -8 14 -12 15
-25 4 -17 -15 -21 -4 -7 18 7 11 3 20 -11 33 -18 15 -18 18 -5 18 10 0 17 5
17 10 0 6 12 10 26 10 38 0 64 17 57 37 -12 31 15 4 36 -37z m-905 5 c6 -11
12 -22 13 -24 1 -2 20 -5 42 -7 45 -3 103 -41 99 -64 -2 -8 -16 -16 -31 -18
-15 -2 -27 -8 -27 -13 0 -17 -47 -9 -65 11 -14 16 -16 23 -7 32 16 16 15 28
-2 28 -8 0 -16 7 -20 15 -3 9 -18 15 -36 15 -16 0 -30 5 -30 11 0 6 -13 1 -29
-10 -25 -18 -30 -19 -35 -5 -13 34 -6 43 37 47 66 6 79 3 91 -18z m1516 5 c0
-5 -5 -10 -11 -10 -5 0 -7 5 -4 10 3 6 8 10 11 10 2 0 4 -4 4 -10z m-920 -21
c0 -5 -4 -9 -10 -9 -5 0 -10 7 -10 16 0 8 5 12 10 9 6 -3 10 -10 10 -16z
m-367 -139 c-1 -8 -5 -24 -8 -36 -8 -25 20 -58 41 -50 10 4 14 -3 14 -19 0
-29 -3 -30 -24 -10 -14 14 -19 14 -43 2 -26 -14 -45 -9 -110 28 -8 4 12 45 21
45 7 0 25 14 41 30 31 32 72 38 68 10z m327 -54 c0 -19 -39 -31 -52 -18 -8 8
-4 9 11 5 15 -4 21 -1 21 11 0 9 5 16 10 16 6 0 10 -6 10 -14z m194 -11 c4
-14 2 -33 -3 -42 -5 -10 -7 -42 -5 -73 3 -48 2 -51 -6 -20 -5 19 -12 63 -16
98 -5 52 -4 62 9 62 8 0 18 -11 21 -25z m-211 -75 c13 -16 14 -20 3 -20 -25 0
-46 12 -46 26 0 20 23 17 43 -6z m-1304 -42 l30 1 -20 -20 -20 -20 -25 26
c-13 14 -24 31 -24 38 0 7 7 3 15 -7 9 -12 26 -19 44 -18z m942 12 c10 -6 19
-20 19 -31 0 -17 -5 -19 -37 -14 -56 9 -63 13 -63 29 0 8 12 16 28 19 15 2 28
5 30 6 2 0 12 -4 23 -9z m339 -22 c0 -18 -2 -20 -9 -8 -6 8 -7 18 -5 22 9 14
14 9 14 -14z m1013 -44 c-1 -9 -73 -166 -79 -173 -1 -1 -7 0 -12 3 -8 5 41
140 64 178 7 11 30 4 27 -8z m-1419 -20 c5 -13 -14 -24 -43 -24 -9 0 -17 8
-18 19 -1 15 5 19 27 19 16 -1 31 -7 34 -14z m671 -14 c3 -5 1 -10 -4 -10 -6
0 -11 5 -11 10 0 6 2 10 4 10 3 0 8 -4 11 -10z m206 -98 l-13 -27 -19 38 -20
38 23 19 c23 19 23 19 32 -11 6 -20 5 -38 -3 -57z m-1651 69 c0 -5 8 -11 18
-14 16 -4 16 -4 -1 -12 -19 -8 -50 11 -41 26 7 12 24 12 24 0z m80 -56 c0 -8
9 -20 20 -27 21 -13 27 -38 10 -38 -19 0 -70 57 -70 79 0 19 3 20 20 11 11 -6
20 -17 20 -25z m780 -16 c0 -5 -9 -9 -20 -9 -13 0 -18 5 -14 14 6 15 34 11 34
-5z m34 -54 c21 -31 21 -57 0 -27 -8 12 -22 22 -30 22 -15 0 -19 12 -7 23 11
12 20 8 37 -18z m-114 -14 c0 -12 -28 -22 -34 -12 -3 5 -3 11 1 15 9 9 33 7
33 -3z m760 -7 c0 -8 -4 -12 -10 -9 -5 3 -10 10 -10 16 0 5 5 9 10 9 6 0 10
-7 10 -16z"/>
<path d="M2040 3796 c0 -2 9 -6 20 -9 11 -3 20 -1 20 4 0 5 -9 9 -20 9 -11 0
-20 -2 -20 -4z"/>
<path d="M2045 3287 c-27 -13 -57 -32 -65 -41 -8 -10 -25 -22 -38 -27 -13 -5
-20 -13 -17 -19 3 -5 0 -7 -9 -4 -15 6 -80 -58 -104 -103 -15 -27 -8 -75 12
-92 9 -8 18 -1 35 29 16 29 42 51 94 81 40 23 79 50 89 59 11 12 34 18 72 19
31 0 56 -1 56 -2 0 -2 -41 -28 -91 -57 -95 -57 -144 -103 -155 -146 -11 -45
10 -49 52 -10 20 19 50 38 66 41 15 4 28 11 28 15 0 5 -7 7 -16 3 -14 -5 -15
-3 -5 16 9 16 16 19 29 12 13 -7 36 -1 82 20 111 51 115 54 115 90 0 17 -5 34
-11 36 -7 2 -10 12 -7 21 2 10 -8 29 -26 46 -43 41 -116 46 -186 13z"/>
<path d="M2481 2668 c-10 -25 -6 -33 24 -42 27 -8 44 5 47 34 3 22 -2 25 -30
28 -26 3 -34 -1 -41 -20z"/>
<path d="M2730 2620 c0 -5 7 -10 15 -10 8 0 15 5 15 10 0 6 -7 10 -15 10 -8 0
-15 -4 -15 -10z"/>
<path d="M1819 2536 c4 -45 18 -61 38 -44 8 6 16 8 20 4 3 -3 1 -6 -5 -6 -7 0
-12 -5 -12 -11 0 -8 4 -8 14 0 13 11 11 18 -12 51 -37 54 -48 56 -43 6z"/>
<path d="M1840 2382 c0 -13 13 -27 38 -39 24 -12 36 -24 34 -35 -2 -9 4 -32
12 -51 14 -34 8 -75 -16 -113 -8 -12 -1 -24 13 -24 5 0 5 8 2 18 -6 15 -5 15
10 3 9 -7 17 -10 17 -7 0 4 9 2 19 -4 13 -6 28 -7 44 -1 20 8 29 6 42 -9 15
-16 19 -17 31 -5 33 33 8 85 -41 85 -39 0 -42 5 -18 32 15 17 15 18 0 18 -10
0 -17 5 -17 10 0 6 7 10 16 10 13 0 14 3 4 15 -14 17 -5 50 11 40 7 -5 9 1 7
16 -3 21 -8 24 -43 23 -22 -1 -43 3 -47 9 -4 7 -11 7 -22 -2 -14 -11 -16 -11
-16 3 0 13 -4 15 -18 7 -14 -7 -25 -6 -40 5 -20 14 -22 14 -22 -4z"/>
<path d="M2365 2331 c-7 -23 3 -51 20 -51 7 0 15 -9 18 -20 5 -20 7 -19 49 8
23 16 61 33 83 38 39 7 38 8 -31 15 -39 4 -80 12 -92 18 -29 16 -40 14 -47 -8z"/>
<path d="M1756 2295 c-9 -25 6 -51 39 -69 33 -18 34 -18 57 4 l23 22 -25 -4
c-19 -2 -26 2 -28 17 -4 26 -58 50 -66 30z"/>
<path d="M2120 2216 c0 -9 5 -16 10 -16 6 0 10 4 10 9 0 6 -4 13 -10 16 -5 3
-10 -1 -10 -9z"/>
<path d="M2747 2133 c-4 -3 -7 -11 -7 -17 0 -6 5 -5 12 2 6 6 9 14 7 17 -3 3
-9 2 -12 -2z"/>
<path d="M2928 2043 c-10 -3 -15 -10 -11 -19 7 -19 23 -18 23 3 0 14 2 14 20
-2 17 -16 20 -16 15 -3 -8 19 -23 26 -47 21z"/>
<path d="M2881 2024 c0 -11 3 -14 6 -6 3 7 2 16 -1 19 -3 4 -6 -2 -5 -13z"/>
<path d="M1284 3339 c-3 -6 -1 -16 4 -21 13 -13 45 8 36 23 -7 12 -31 11 -40
-2z"/>
<path d="M1295 3284 c9 -9 18 -14 21 -11 9 9 -6 27 -22 27 -13 0 -13 -2 1 -16z"/>
<path d="M2100 320 c0 -5 5 -10 10 -10 6 0 10 5 10 10 0 6 -4 10 -10 10 -5 0
-10 -4 -10 -10z"/>
<path d="M1050 4955 c-10 -12 -10 -15 4 -15 9 0 16 7 16 15 0 8 -2 15 -4 15
-2 0 -9 -7 -16 -15z"/>
<path d="M3725 4940 c-25 -26 -27 -32 -15 -40 21 -13 24 -13 54 11 30 24 35
59 8 59 -10 0 -31 -14 -47 -30z"/>
<path d="M80 4940 c-9 -16 -8 -18 5 -14 8 4 15 12 15 20 0 20 -7 17 -20 -6z"/>
<path d="M480 4929 c0 -5 5 -7 10 -4 6 3 10 8 10 11 0 2 -4 4 -10 4 -5 0 -10
-5 -10 -11z"/>
<path d="M3570 4910 c0 -11 5 -20 10 -20 6 0 10 9 10 20 0 11 -4 20 -10 20 -5
0 -10 -9 -10 -20z"/>
<path d="M3600 4914 c0 -8 5 -12 10 -9 6 3 10 10 10 16 0 5 -4 9 -10 9 -5 0
-10 -7 -10 -16z"/>
<path d="M1793 4898 c-33 -16 -28 -30 9 -26 22 2 34 9 36 21 4 19 -12 21 -45
5z"/>
<path d="M1705 4890 c3 -5 10 -10 16 -10 5 0 9 5 9 10 0 6 -7 10 -16 10 -8 0
-12 -4 -9 -10z"/>
<path d="M4490 4883 c-8 -3 -21 -13 -28 -22 -11 -13 -14 -14 -22 -2 -7 12 -11
12 -24 2 -9 -8 -16 -10 -16 -5 0 4 -5 3 -12 -4 -10 -10 -7 -15 9 -27 13 -9 20
-22 17 -30 -4 -8 -1 -15 5 -15 6 0 11 7 11 15 0 9 10 15 23 16 30 2 39 4 60
13 30 14 31 -1 1 -16 -48 -23 -43 -41 9 -33 43 7 71 -5 47 -20 -5 -3 -10 -15
-10 -26 0 -16 7 -19 43 -18 23 1 32 4 20 6 -13 2 -23 11 -23 20 0 9 6 13 15
10 8 -4 27 0 42 8 15 8 22 15 15 15 -23 0 -25 30 -2 48 l22 17 -21 19 c-20 18
-22 18 -39 3 -21 -19 -47 -23 -36 -5 5 8 2 9 -9 5 -19 -7 -67 11 -67 25 0 9
-7 9 -30 1z"/>
<path d="M1449 4858 c-6 -12 -4 -48 2 -48 5 0 9 11 9 25 0 21 -6 33 -11 23z"/>
<path d="M4780 4806 c0 -7 -9 -25 -20 -39 -23 -28 -14 -41 22 -32 17 4 32 -1
51 -19 29 -27 61 -34 72 -15 4 6 14 8 22 5 22 -9 43 12 43 41 0 19 -4 23 -19
18 -11 -3 -22 -1 -26 5 -4 6 -19 10 -33 8 -22 -2 -28 2 -30 19 -3 18 -7 21
-21 14 -10 -6 -23 -6 -32 0 -20 12 -29 11 -29 -5z"/>
<path d="M5168 4791 c-1 -17 -2 -38 -2 -48 -1 -9 5 -18 12 -20 8 -3 12 7 12
32 0 24 4 34 11 29 7 -4 10 1 7 12 -2 10 -11 20 -21 22 -13 3 -17 -4 -19 -27z"/>
<path d="M5035 4753 c3 -15 1 -23 -7 -23 -16 -1 21 -30 36 -30 10 0 36 44 36
61 0 4 -16 9 -36 11 -33 4 -35 2 -29 -19z"/>
<path d="M5311 4771 c0 -7 -7 -11 -15 -8 -9 4 -17 -2 -22 -15 -10 -32 18 -52
76 -52 31 0 49 -4 47 -10 -2 -6 -12 -10 -22 -8 -10 2 -15 -2 -13 -9 3 -8 22
-14 43 -15 24 0 43 -8 51 -19 14 -18 14 -18 14 1 0 11 7 29 15 40 12 18 12 24
-1 42 -14 21 -37 24 -61 9 -6 -4 -22 -3 -35 2 -12 4 -32 5 -43 1 -17 -6 -21
-2 -26 24 -4 17 -7 25 -8 17z"/>
<path d="M4310 4760 c0 -5 4 -10 9 -10 6 0 13 5 16 10 3 6 -1 10 -9 10 -9 0
-16 -4 -16 -10z"/>
<path d="M1381 4738 c-7 -20 -5 -23 16 -26 35 -5 50 12 30 32 -22 22 -36 20
-46 -6z"/>
<path d="M1475 4750 c-8 -13 3 -30 20 -30 8 0 11 7 8 20 -6 22 -18 26 -28 10z"/>
<path d="M4350 4744 c0 -8 5 -12 10 -9 6 4 8 11 5 16 -9 14 -15 11 -15 -7z"/>
<path d="M4430 4719 c0 -12 25 -22 41 -17 6 2 0 9 -15 16 -16 7 -26 8 -26 1z"/>
<path d="M5515 4707 c-10 -28 -24 -102 -19 -106 6 -7 33 31 34 48 0 9 8 11 28
7 15 -4 45 -9 67 -12 22 -4 46 -11 53 -16 8 -8 12 -6 12 5 0 14 -24 26 -63 31
-10 2 -30 12 -45 23 -38 28 -62 35 -67 20z"/>
<path d="M3712 4569 c-27 -10 -24 -36 4 -31 10 2 27 4 36 5 13 1 14 5 7 19
-11 20 -14 21 -47 7z"/>
<path d="M3548 4385 c-2 -3 -13 -6 -24 -9 -55 -12 -64 -18 -49 -32 18 -19 92
-24 113 -8 11 9 12 13 5 14 -7 0 -13 6 -13 14 0 13 -24 29 -32 21z"/>
<path d="M4470 4290 c0 -5 5 -10 11 -10 5 0 7 5 4 10 -3 6 -8 10 -11 10 -2 0
-4 -4 -4 -10z"/>
<path d="M438 4270 c-15 -17 -15 -18 3 -23 10 -3 22 -1 25 4 3 6 14 7 25 4 13
-4 19 -2 19 9 0 9 -6 16 -14 16 -8 0 -20 2 -28 4 -7 2 -20 -4 -30 -14z"/>
<path d="M4071 4257 c-6 -8 -8 -17 -4 -21 4 -4 8 -16 8 -28 0 -11 8 -26 17
-31 13 -9 22 -5 44 17 23 22 26 29 14 36 -10 7 -19 5 -26 -5 -14 -18 -24 -9
-24 22 0 26 -12 30 -29 10z"/>
<path d="M1105 4160 c-4 -6 -12 -7 -18 -3 -7 4 -7 1 1 -9 13 -16 42 -14 42 2
0 14 -18 21 -25 10z"/>
<path d="M4227 4164 c-10 -10 31 -37 43 -29 6 4 8 11 4 16 -3 5 -10 6 -16 3
-6 -4 -13 -1 -17 5 -4 6 -10 8 -14 5z"/>
<path d="M4170 4130 c0 -5 5 -10 10 -10 6 0 10 5 10 10 0 6 -4 10 -10 10 -5 0
-10 -4 -10 -10z"/>
<path d="M459 4093 c-13 -15 -12 -15 9 -4 23 12 28 21 13 21 -5 0 -15 -7 -22
-17z"/>
<path d="M4575 4030 c3 -5 8 -10 11 -10 2 0 4 5 4 10 0 6 -5 10 -11 10 -5 0
-7 -4 -4 -10z"/>
<path d="M1050 3800 c8 -5 22 -9 30 -9 10 0 8 3 -5 9 -27 12 -43 12 -25 0z"/>
<path d="M1030 3755 c-10 -11 -9 -18 3 -30 29 -29 42 -20 31 23 -7 26 -17 28
-34 7z"/>
<path d="M4615 3330 c-3 -5 -1 -10 4 -10 6 0 11 5 11 10 0 6 -2 10 -4 10 -3 0
-8 -4 -11 -10z"/>
<path d="M110 3170 c0 -5 5 -10 10 -10 6 0 10 5 10 10 0 6 -4 10 -10 10 -5 0
-10 -4 -10 -10z"/>
<path d="M4930 3150 c0 -15 -50 -60 -67 -60 -7 0 -18 -11 -25 -24 -12 -28 -34
-40 -43 -25 -4 5 1 12 9 15 9 3 16 15 16 25 0 19 7 22 43 22 10 0 16 5 14 11
-5 14 -60 11 -65 -4 -2 -5 -10 -10 -17 -10 -16 0 -25 -22 -19 -47 3 -13 -7
-25 -36 -43 -22 -13 -40 -27 -40 -32 0 -4 -6 -5 -13 -2 -7 2 -40 -4 -72 -14
l-60 -19 40 -7 c66 -12 75 -16 100 -44 28 -31 32 -20 9 26 -18 37 -11 56 21
50 18 -4 21 -1 17 14 -4 16 0 17 29 12 19 -4 36 -7 39 -6 3 0 19 1 35 2 l30 2
-35 14 -35 14 45 -4 c31 -3 49 -11 59 -25 7 -12 23 -21 35 -21 12 0 27 -5 34
-12 9 -9 12 -9 12 -1 0 7 -5 15 -10 18 -6 4 -2 19 12 38 28 41 39 48 61 41 9
-3 17 -1 17 5 0 6 -7 11 -15 11 -24 0 -75 -29 -75 -42 0 -9 -3 -9 -12 0 -9 9
-9 15 0 24 14 14 16 38 3 38 -16 0 -45 -34 -32 -38 15 -5 14 -27 -3 -41 -11
-9 -16 -9 -22 0 -4 7 -3 14 3 16 6 2 9 12 6 23 -3 10 4 27 15 38 13 13 19 28
15 41 -6 23 -23 39 -23 21z"/>
<path d="M4690 3010 c-9 -6 -10 -10 -3 -10 6 0 15 5 18 10 8 12 4 12 -15 0z"/>
<path d="M175 2981 c3 -15 -1 -19 -16 -16 -10 2 -19 0 -19 -5 0 -9 24 -20 44
-20 17 0 15 52 -1 57 -8 3 -11 -3 -8 -16z"/>
<path d="M4455 2990 c-3 -5 -3 -10 2 -11 4 0 24 -2 43 -4 33 -4 34 -4 16 10
-23 17 -52 20 -61 5z"/>
<path d="M4545 2990 c-3 -5 -2 -10 4 -10 5 0 13 5 16 10 3 6 2 10 -4 10 -5 0
-13 -4 -16 -10z"/>
<path d="M5390 2840 c0 -6 9 -14 20 -17 11 -3 17 -9 14 -14 -3 -5 4 -9 15 -9
25 0 28 26 4 33 -10 2 -26 8 -35 12 -11 4 -18 3 -18 -5z"/>
<path d="M5588 2815 c4 -22 25 -33 23 -12 -1 4 -1 14 -1 22 0 8 -6 15 -14 15
-9 0 -12 -8 -8 -25z"/>
<path d="M520 2800 c0 -5 7 -10 16 -10 8 0 12 5 9 10 -3 6 -10 10 -16 10 -5 0
-9 -4 -9 -10z"/>
<path d="M5525 2791 c-3 -5 -1 -12 5 -16 5 -3 10 1 10 9 0 18 -6 21 -15 7z"/>
<path d="M38 2375 c5 -28 14 -31 31 -11 10 12 8 17 -8 25 -27 15 -29 14 -23
-14z"/>
<path d="M130 2180 c0 -5 5 -10 10 -10 6 0 10 5 10 10 0 6 -4 10 -10 10 -5 0
-10 -4 -10 -10z"/>
<path d="M322 2164 c-8 -15 -28 -18 -127 -21 -65 -2 -135 -8 -156 -13 -33 -9
-39 -15 -39 -38 0 -35 54 -129 77 -135 10 -3 32 -4 48 -2 17 1 40 3 53 3 13 1
22 9 23 20 0 10 3 12 6 5 2 -7 11 -13 20 -13 10 0 12 6 8 21 -7 21 -5 22 42
17 34 -3 53 0 62 9 8 9 23 12 42 8 29 -7 37 3 19 21 -13 13 4 72 27 90 17 13
17 13 -4 14 -13 0 -23 5 -23 11 0 6 -9 8 -20 4 -12 -4 -27 -2 -35 5 -10 9 -16
7 -23 -6z m-137 -174 c3 -5 -1 -10 -10 -10 -9 0 -13 5 -10 10 3 6 8 10 10 10
2 0 7 -4 10 -10z"/>
<path d="M0 2011 c0 -6 5 -13 10 -16 5 -3 10 -14 10 -23 0 -15 -2 -15 -10 -2
-8 12 -10 11 -10 -7 0 -22 18 -27 31 -9 9 11 -10 66 -22 66 -5 0 -9 -4 -9 -9z"/>
<path d="M416 1972 c-23 -23 27 -31 56 -9 14 11 12 13 -17 14 -19 1 -36 -2
-39 -5z"/>
<path d="M706 1525 c5 -12 -2 -15 -29 -15 -20 0 -39 5 -42 10 -4 6 -11 8 -16
4 -16 -10 28 -69 53 -72 13 -1 39 -5 58 -7 47 -7 69 7 53 35 -7 11 -13 26 -13
34 0 15 -21 26 -51 26 -12 0 -16 -5 -13 -15z"/>
<path d="M60 1519 c0 -16 21 -20 35 -6 12 13 11 15 -11 15 -13 0 -24 -4 -24
-9z"/>
<path d="M65 1469 c-10 -16 4 -59 19 -59 18 0 26 22 19 49 -6 22 -27 28 -38
10z"/>
<path d="M970 1220 c0 -5 -3 -9 -7 -9 -20 3 -27 -2 -14 -10 18 -11 55 5 46 20
-8 12 -25 12 -25 -1z"/>
<path d="M0 1024 c0 -8 5 -12 10 -9 6 4 8 11 5 16 -9 14 -15 11 -15 -7z"/>
<path d="M480 900 c0 -5 5 -10 10 -10 6 0 10 5 10 10 0 6 -4 10 -10 10 -5 0
-10 -4 -10 -10z"/>
<path d="M550 900 c0 -5 5 -10 11 -10 5 0 7 5 4 10 -3 6 -8 10 -11 10 -2 0 -4
-4 -4 -10z"/>
<path d="M840 851 c0 -11 4 -22 8 -25 14 -9 35 12 29 28 -9 23 -37 20 -37 -3z"/>
<path d="M0 505 c0 -8 5 -15 10 -15 6 0 10 -11 10 -25 0 -13 8 -29 18 -34 14
-9 14 -12 4 -20 -10 -6 -15 -40 -18 -111 -3 -57 -9 -111 -14 -121 -6 -10 -10
-54 -10 -98 0 -80 0 -81 25 -81 18 0 25 5 25 19 0 32 19 35 41 7 20 -25 25
-26 119 -26 54 0 105 3 114 6 19 7 21 30 4 40 -7 5 -8 3 -3 -5 5 -9 2 -9 -14
1 -21 13 -51 74 -51 106 0 15 -2 15 -10 2 -7 -11 -10 -6 -10 21 0 19 -4 39 -9
45 -6 5 -11 34 -13 64 -3 51 -5 55 -25 52 -13 -2 -23 2 -23 7 0 6 5 11 10 11
13 0 13 26 -1 51 -14 27 -31 14 -20 -15 5 -12 6 -36 3 -53 -6 -27 -10 -29 -30
-22 -26 10 -42 41 -24 47 21 7 14 60 -9 73 -20 10 -21 9 -14 -19 7 -35 -10
-53 -19 -19 -9 34 -7 67 4 67 16 0 12 18 -10 40 -24 24 -60 27 -60 5z m77
-197 c-3 -8 -6 -5 -6 6 -1 11 2 17 5 13 3 -3 4 -12 1 -19z m53 -67 c7 -22 21
-49 32 -60 10 -11 17 -28 17 -38 -1 -17 -2 -17 -6 0 -3 10 -17 20 -33 23 -15
4 -31 14 -34 23 -3 9 -10 23 -16 31 -8 11 -9 23 -1 43 14 35 24 29 41 -22z
m27 17 c-3 -8 -6 -5 -6 6 -1 11 2 17 5 13 3 -3 4 -12 1 -19z m43 -153 c10 -12
10 -15 -4 -15 -9 0 -16 7 -16 15 0 8 2 15 4 15 2 0 9 -7 16 -15z m-150 -30 c0
-19 -26 -19 -34 0 -4 10 1 15 14 15 11 0 20 -7 20 -15z"/>
<path d="M245 400 c4 -6 11 -8 16 -5 14 9 11 15 -7 15 -8 0 -12 -5 -9 -10z"/>
<path d="M126 351 c-4 -7 -5 -15 -2 -18 9 -9 19 4 14 18 -4 11 -6 11 -12 0z"/>
<path d="M320 205 c0 -10 10 -15 33 -15 30 1 31 1 13 15 -25 19 -46 19 -46 0z"/>
<path d="M400 132 c0 -22 13 -42 26 -42 20 0 17 14 -6 35 -11 10 -20 13 -20 7z"/>
<path d="M356 102 c-4 -7 -3 -12 3 -12 5 0 13 -20 17 -45 l6 -45 49 0 c32 0
49 4 49 13 0 6 3 21 6 32 5 18 1 20 -40 17 -37 -3 -46 -1 -46 12 0 9 -6 16
-14 16 -8 0 -16 5 -18 12 -3 9 -6 9 -12 0z"/>
</g>
</svg>
